<mxfile host="app.diagrams.net" modified="2024-01-11T17:59:59.243Z" agent="Mozilla/5.0 (Windows NT 10.0; Win64; x64) AppleWebKit/537.36 (KHTML, like Gecko) Chrome/120.0.0.0 Safari/537.36" etag="A_B2ZcGgYBhoEKQXRqqo" version="22.1.18" type="github" pages="2">
  <diagram name="Use case" id="99miMiEeGPiiA9rvKlBM">
    <mxGraphModel dx="593" dy="1801" grid="1" gridSize="10" guides="1" tooltips="1" connect="1" arrows="1" fold="1" page="1" pageScale="1" pageWidth="827" pageHeight="1169" math="0" shadow="0">
      <root>
        <mxCell id="0" />
        <mxCell id="1" parent="0" />
        <mxCell id="AkujJri6aUZunFmp67Fm-5" value="Actor" style="shape=umlActor;verticalLabelPosition=bottom;verticalAlign=top;html=1;outlineConnect=0;" vertex="1" parent="1">
          <mxGeometry x="80" y="80" width="30" height="60" as="geometry" />
        </mxCell>
        <mxCell id="AkujJri6aUZunFmp67Fm-6" value="Login" style="ellipse;whiteSpace=wrap;html=1;" vertex="1" parent="1">
          <mxGeometry x="270" y="50" width="110" height="60" as="geometry" />
        </mxCell>
        <mxCell id="AkujJri6aUZunFmp67Fm-8" value="Actor" style="shape=umlActor;verticalLabelPosition=bottom;verticalAlign=top;html=1;outlineConnect=0;" vertex="1" parent="1">
          <mxGeometry x="495" y="100" width="30" height="60" as="geometry" />
        </mxCell>
        <mxCell id="AkujJri6aUZunFmp67Fm-10" value="Admin" style="text;align=center;fontStyle=1;verticalAlign=middle;spacingLeft=3;spacingRight=3;strokeColor=none;rotatable=0;points=[[0,0.5],[1,0.5]];portConstraint=eastwest;html=1;" vertex="1" parent="1">
          <mxGeometry x="55" y="54" width="80" height="26" as="geometry" />
        </mxCell>
        <mxCell id="AkujJri6aUZunFmp67Fm-11" value="Owner" style="text;align=center;fontStyle=1;verticalAlign=middle;spacingLeft=3;spacingRight=3;strokeColor=none;rotatable=0;points=[[0,0.5],[1,0.5]];portConstraint=eastwest;html=1;" vertex="1" parent="1">
          <mxGeometry x="460" y="74" width="80" height="26" as="geometry" />
        </mxCell>
        <mxCell id="AkujJri6aUZunFmp67Fm-13" value="category" style="ellipse;whiteSpace=wrap;html=1;" vertex="1" parent="1">
          <mxGeometry x="200" y="130" width="90" height="40" as="geometry" />
        </mxCell>
        <mxCell id="AkujJri6aUZunFmp67Fm-14" value="Jenis" style="ellipse;whiteSpace=wrap;html=1;" vertex="1" parent="1">
          <mxGeometry x="200" y="180" width="90" height="40" as="geometry" />
        </mxCell>
        <mxCell id="AkujJri6aUZunFmp67Fm-15" value="Meja" style="ellipse;whiteSpace=wrap;html=1;" vertex="1" parent="1">
          <mxGeometry x="200" y="230" width="90" height="40" as="geometry" />
        </mxCell>
        <mxCell id="AkujJri6aUZunFmp67Fm-16" value="Menu" style="ellipse;whiteSpace=wrap;html=1;" vertex="1" parent="1">
          <mxGeometry x="200" y="280" width="90" height="40" as="geometry" />
        </mxCell>
        <mxCell id="AkujJri6aUZunFmp67Fm-17" value="Pelanggan" style="ellipse;whiteSpace=wrap;html=1;" vertex="1" parent="1">
          <mxGeometry x="200" y="330" width="90" height="40" as="geometry" />
        </mxCell>
        <mxCell id="AkujJri6aUZunFmp67Fm-18" value="Stok" style="ellipse;whiteSpace=wrap;html=1;" vertex="1" parent="1">
          <mxGeometry x="200" y="380" width="90" height="40" as="geometry" />
        </mxCell>
        <mxCell id="AkujJri6aUZunFmp67Fm-34" value="" style="endArrow=none;html=1;rounded=0;entryX=0;entryY=0.5;entryDx=0;entryDy=0;" edge="1" parent="1" source="AkujJri6aUZunFmp67Fm-5" target="AkujJri6aUZunFmp67Fm-13">
          <mxGeometry width="50" height="50" relative="1" as="geometry">
            <mxPoint x="250" y="330" as="sourcePoint" />
            <mxPoint x="300" y="280" as="targetPoint" />
          </mxGeometry>
        </mxCell>
        <mxCell id="AkujJri6aUZunFmp67Fm-35" value="" style="endArrow=none;html=1;rounded=0;entryX=0;entryY=0.5;entryDx=0;entryDy=0;exitX=0.879;exitY=0.809;exitDx=0;exitDy=0;exitPerimeter=0;" edge="1" parent="1" source="AkujJri6aUZunFmp67Fm-5" target="AkujJri6aUZunFmp67Fm-14">
          <mxGeometry width="50" height="50" relative="1" as="geometry">
            <mxPoint x="120" y="126" as="sourcePoint" />
            <mxPoint x="210" y="160" as="targetPoint" />
          </mxGeometry>
        </mxCell>
        <mxCell id="AkujJri6aUZunFmp67Fm-36" value="" style="endArrow=none;html=1;rounded=0;entryX=0;entryY=0.5;entryDx=0;entryDy=0;" edge="1" parent="1" target="AkujJri6aUZunFmp67Fm-6">
          <mxGeometry width="50" height="50" relative="1" as="geometry">
            <mxPoint x="120" y="90" as="sourcePoint" />
            <mxPoint x="210" y="160" as="targetPoint" />
          </mxGeometry>
        </mxCell>
        <mxCell id="AkujJri6aUZunFmp67Fm-37" value="" style="endArrow=none;html=1;rounded=0;exitX=1;exitY=0.5;exitDx=0;exitDy=0;" edge="1" parent="1" source="AkujJri6aUZunFmp67Fm-6">
          <mxGeometry width="50" height="50" relative="1" as="geometry">
            <mxPoint x="370" y="110" as="sourcePoint" />
            <mxPoint x="480" y="110" as="targetPoint" />
          </mxGeometry>
        </mxCell>
        <mxCell id="AkujJri6aUZunFmp67Fm-38" value="" style="endArrow=none;html=1;rounded=0;entryX=0;entryY=0.5;entryDx=0;entryDy=0;exitX=0.879;exitY=0.809;exitDx=0;exitDy=0;exitPerimeter=0;" edge="1" parent="1" target="AkujJri6aUZunFmp67Fm-15">
          <mxGeometry width="50" height="50" relative="1" as="geometry">
            <mxPoint x="110" y="159" as="sourcePoint" />
            <mxPoint x="204" y="230" as="targetPoint" />
          </mxGeometry>
        </mxCell>
        <mxCell id="AkujJri6aUZunFmp67Fm-39" value="" style="endArrow=none;html=1;rounded=0;entryX=0;entryY=0.5;entryDx=0;entryDy=0;exitX=0.879;exitY=0.809;exitDx=0;exitDy=0;exitPerimeter=0;" edge="1" parent="1" target="AkujJri6aUZunFmp67Fm-16">
          <mxGeometry width="50" height="50" relative="1" as="geometry">
            <mxPoint x="110" y="170" as="sourcePoint" />
            <mxPoint x="200" y="261" as="targetPoint" />
          </mxGeometry>
        </mxCell>
        <mxCell id="AkujJri6aUZunFmp67Fm-40" value="" style="endArrow=none;html=1;rounded=0;entryX=0;entryY=0.5;entryDx=0;entryDy=0;" edge="1" parent="1" target="AkujJri6aUZunFmp67Fm-17">
          <mxGeometry width="50" height="50" relative="1" as="geometry">
            <mxPoint x="100" y="170" as="sourcePoint" />
            <mxPoint x="180" y="300" as="targetPoint" />
          </mxGeometry>
        </mxCell>
        <mxCell id="AkujJri6aUZunFmp67Fm-41" value="" style="endArrow=none;html=1;rounded=0;entryX=0;entryY=0.5;entryDx=0;entryDy=0;" edge="1" parent="1" target="AkujJri6aUZunFmp67Fm-18">
          <mxGeometry width="50" height="50" relative="1" as="geometry">
            <mxPoint x="100" y="170" as="sourcePoint" />
            <mxPoint x="190" y="350" as="targetPoint" />
          </mxGeometry>
        </mxCell>
        <mxCell id="AkujJri6aUZunFmp67Fm-42" value="Laporan" style="ellipse;whiteSpace=wrap;html=1;" vertex="1" parent="1">
          <mxGeometry x="330" y="145" width="90" height="40" as="geometry" />
        </mxCell>
        <mxCell id="AkujJri6aUZunFmp67Fm-43" value="" style="endArrow=none;html=1;rounded=0;exitX=1;exitY=0.5;exitDx=0;exitDy=0;" edge="1" parent="1" source="AkujJri6aUZunFmp67Fm-42" target="AkujJri6aUZunFmp67Fm-8">
          <mxGeometry width="50" height="50" relative="1" as="geometry">
            <mxPoint x="425" y="150" as="sourcePoint" />
            <mxPoint x="565" y="170" as="targetPoint" />
          </mxGeometry>
        </mxCell>
        <mxCell id="AkujJri6aUZunFmp67Fm-44" value="Actor" style="shape=umlActor;verticalLabelPosition=bottom;verticalAlign=top;html=1;outlineConnect=0;" vertex="1" parent="1">
          <mxGeometry x="495" y="230" width="30" height="60" as="geometry" />
        </mxCell>
        <mxCell id="AkujJri6aUZunFmp67Fm-45" value="&lt;h1&gt;Use Case Cashier Caffe&lt;/h1&gt;" style="text;html=1;strokeColor=none;fillColor=none;spacing=5;spacingTop=-20;whiteSpace=wrap;overflow=hidden;rounded=0;" vertex="1" parent="1">
          <mxGeometry x="100" y="-30" width="350" height="40" as="geometry" />
        </mxCell>
        <mxCell id="AkujJri6aUZunFmp67Fm-46" value="Kasir" style="text;html=1;strokeColor=none;fillColor=none;align=center;verticalAlign=middle;whiteSpace=wrap;rounded=0;" vertex="1" parent="1">
          <mxGeometry x="480" y="200" width="60" height="30" as="geometry" />
        </mxCell>
        <mxCell id="AkujJri6aUZunFmp67Fm-49" value="" style="endArrow=none;html=1;rounded=0;exitX=1;exitY=0;exitDx=0;exitDy=0;" edge="1" parent="1" source="AkujJri6aUZunFmp67Fm-6" target="AkujJri6aUZunFmp67Fm-44">
          <mxGeometry width="50" height="50" relative="1" as="geometry">
            <mxPoint x="300" y="310" as="sourcePoint" />
            <mxPoint x="550" y="260" as="targetPoint" />
            <Array as="points">
              <mxPoint x="560" y="60" />
              <mxPoint x="560" y="260" />
            </Array>
          </mxGeometry>
        </mxCell>
        <mxCell id="AkujJri6aUZunFmp67Fm-50" value="Pemesanan" style="ellipse;whiteSpace=wrap;html=1;" vertex="1" parent="1">
          <mxGeometry x="330" y="300" width="90" height="40" as="geometry" />
        </mxCell>
        <mxCell id="AkujJri6aUZunFmp67Fm-52" value="Transaksi" style="ellipse;whiteSpace=wrap;html=1;" vertex="1" parent="1">
          <mxGeometry x="330" y="250" width="90" height="40" as="geometry" />
        </mxCell>
        <mxCell id="AkujJri6aUZunFmp67Fm-53" value="" style="endArrow=none;html=1;rounded=0;exitX=1;exitY=0;exitDx=0;exitDy=0;" edge="1" parent="1" source="AkujJri6aUZunFmp67Fm-50">
          <mxGeometry width="50" height="50" relative="1" as="geometry">
            <mxPoint x="300" y="310" as="sourcePoint" />
            <mxPoint x="500" y="260" as="targetPoint" />
          </mxGeometry>
        </mxCell>
        <mxCell id="AkujJri6aUZunFmp67Fm-54" value="" style="endArrow=none;html=1;rounded=0;exitX=1;exitY=0;exitDx=0;exitDy=0;" edge="1" parent="1" source="AkujJri6aUZunFmp67Fm-55">
          <mxGeometry width="50" height="50" relative="1" as="geometry">
            <mxPoint x="430" y="340" as="sourcePoint" />
            <mxPoint x="500" y="270" as="targetPoint" />
          </mxGeometry>
        </mxCell>
        <mxCell id="AkujJri6aUZunFmp67Fm-55" value="Reservasi&lt;br&gt;meja" style="ellipse;whiteSpace=wrap;html=1;" vertex="1" parent="1">
          <mxGeometry x="340" y="350" width="90" height="40" as="geometry" />
        </mxCell>
        <mxCell id="AkujJri6aUZunFmp67Fm-56" value="" style="endArrow=none;html=1;rounded=0;entryX=0;entryY=0.3333333333333333;entryDx=0;entryDy=0;entryPerimeter=0;exitX=1;exitY=0.5;exitDx=0;exitDy=0;" edge="1" parent="1" source="AkujJri6aUZunFmp67Fm-52" target="AkujJri6aUZunFmp67Fm-44">
          <mxGeometry width="50" height="50" relative="1" as="geometry">
            <mxPoint x="430" y="240" as="sourcePoint" />
            <mxPoint x="510" y="270" as="targetPoint" />
          </mxGeometry>
        </mxCell>
        <mxCell id="AkujJri6aUZunFmp67Fm-58" value="Stok" style="ellipse;whiteSpace=wrap;html=1;" vertex="1" parent="1">
          <mxGeometry x="200" y="430" width="90" height="40" as="geometry" />
        </mxCell>
        <mxCell id="AkujJri6aUZunFmp67Fm-59" value="" style="endArrow=none;html=1;rounded=0;entryX=-0.027;entryY=0.273;entryDx=0;entryDy=0;entryPerimeter=0;" edge="1" parent="1" target="AkujJri6aUZunFmp67Fm-58">
          <mxGeometry width="50" height="50" relative="1" as="geometry">
            <mxPoint x="100" y="170" as="sourcePoint" />
            <mxPoint x="190" y="430" as="targetPoint" />
          </mxGeometry>
        </mxCell>
        <mxCell id="AkujJri6aUZunFmp67Fm-60" value="Actor" style="shape=umlActor;verticalLabelPosition=bottom;verticalAlign=top;html=1;outlineConnect=0;" vertex="1" parent="1">
          <mxGeometry x="495" y="410" width="30" height="60" as="geometry" />
        </mxCell>
        <mxCell id="AkujJri6aUZunFmp67Fm-61" value="Customer" style="text;html=1;strokeColor=none;fillColor=none;align=center;verticalAlign=middle;whiteSpace=wrap;rounded=0;" vertex="1" parent="1">
          <mxGeometry x="480" y="370" width="60" height="30" as="geometry" />
        </mxCell>
        <mxCell id="AkujJri6aUZunFmp67Fm-63" value="" style="endArrow=none;html=1;rounded=0;exitX=1;exitY=1;exitDx=0;exitDy=0;entryX=0;entryY=0.3333333333333333;entryDx=0;entryDy=0;entryPerimeter=0;" edge="1" parent="1" source="AkujJri6aUZunFmp67Fm-55" target="AkujJri6aUZunFmp67Fm-60">
          <mxGeometry width="50" height="50" relative="1" as="geometry">
            <mxPoint x="426" y="366" as="sourcePoint" />
            <mxPoint x="480" y="420" as="targetPoint" />
          </mxGeometry>
        </mxCell>
        <mxCell id="AkujJri6aUZunFmp67Fm-64" value="" style="endArrow=none;html=1;rounded=0;exitX=0;exitY=0.5;exitDx=0;exitDy=0;" edge="1" parent="1" source="AkujJri6aUZunFmp67Fm-52">
          <mxGeometry width="50" height="50" relative="1" as="geometry">
            <mxPoint x="414" y="410" as="sourcePoint" />
            <mxPoint x="493" y="440" as="targetPoint" />
            <Array as="points">
              <mxPoint x="310" y="270" />
              <mxPoint x="320" y="440" />
            </Array>
          </mxGeometry>
        </mxCell>
        <mxCell id="AkujJri6aUZunFmp67Fm-65" value="" style="endArrow=none;html=1;rounded=0;exitX=0.5;exitY=0;exitDx=0;exitDy=0;" edge="1" parent="1" source="AkujJri6aUZunFmp67Fm-6">
          <mxGeometry width="50" height="50" relative="1" as="geometry">
            <mxPoint x="340" y="280" as="sourcePoint" />
            <mxPoint x="530" y="440" as="targetPoint" />
            <Array as="points">
              <mxPoint x="325" y="30" />
              <mxPoint x="590" y="30" />
              <mxPoint x="590" y="440" />
            </Array>
          </mxGeometry>
        </mxCell>
      </root>
    </mxGraphModel>
  </diagram>
  <diagram id="ZJLMs0nHdGUidtGzyGsQ" name="erd">
    <mxGraphModel dx="3075" dy="2359" grid="1" gridSize="10" guides="1" tooltips="1" connect="1" arrows="1" fold="1" page="1" pageScale="1" pageWidth="827" pageHeight="1169" math="0" shadow="0">
      <root>
        <mxCell id="0" />
        <mxCell id="1" parent="0" />
        <mxCell id="xLAtc9gtNEq5Ne8GK9qX-1" value="&lt;h1&gt;ERD Cashier Caffe&lt;/h1&gt;" style="text;html=1;strokeColor=none;fillColor=none;spacing=5;spacingTop=-20;whiteSpace=wrap;overflow=hidden;rounded=0;" vertex="1" parent="1">
          <mxGeometry x="100" y="-30" width="350" height="40" as="geometry" />
        </mxCell>
        <mxCell id="xLAtc9gtNEq5Ne8GK9qX-3" value="Stok" style="html=1;whiteSpace=wrap;" vertex="1" parent="1">
          <mxGeometry x="160" y="140" width="90" height="40" as="geometry" />
        </mxCell>
        <mxCell id="xLAtc9gtNEq5Ne8GK9qX-6" value="id" style="ellipse;whiteSpace=wrap;html=1;" vertex="1" parent="1">
          <mxGeometry x="110" y="70" width="80" height="40" as="geometry" />
        </mxCell>
        <mxCell id="xLAtc9gtNEq5Ne8GK9qX-7" value="menu_id" style="ellipse;whiteSpace=wrap;html=1;" vertex="1" parent="1">
          <mxGeometry x="200" y="70" width="80" height="40" as="geometry" />
        </mxCell>
        <mxCell id="xLAtc9gtNEq5Ne8GK9qX-8" value="jumlah" style="ellipse;whiteSpace=wrap;html=1;" vertex="1" parent="1">
          <mxGeometry x="30" y="140" width="80" height="40" as="geometry" />
        </mxCell>
        <mxCell id="xLAtc9gtNEq5Ne8GK9qX-9" value="" style="endArrow=none;html=1;rounded=0;exitX=0.5;exitY=1;exitDx=0;exitDy=0;entryX=0;entryY=0;entryDx=0;entryDy=0;" edge="1" parent="1" source="xLAtc9gtNEq5Ne8GK9qX-6" target="xLAtc9gtNEq5Ne8GK9qX-3">
          <mxGeometry width="50" height="50" relative="1" as="geometry">
            <mxPoint x="220" y="130" as="sourcePoint" />
            <mxPoint x="270" y="80" as="targetPoint" />
          </mxGeometry>
        </mxCell>
        <mxCell id="xLAtc9gtNEq5Ne8GK9qX-10" value="" style="endArrow=none;html=1;rounded=0;exitX=0.5;exitY=1;exitDx=0;exitDy=0;entryX=0.5;entryY=0;entryDx=0;entryDy=0;" edge="1" parent="1" source="xLAtc9gtNEq5Ne8GK9qX-7" target="xLAtc9gtNEq5Ne8GK9qX-3">
          <mxGeometry width="50" height="50" relative="1" as="geometry">
            <mxPoint x="160" y="120" as="sourcePoint" />
            <mxPoint x="170" y="150" as="targetPoint" />
          </mxGeometry>
        </mxCell>
        <mxCell id="xLAtc9gtNEq5Ne8GK9qX-11" value="" style="endArrow=none;html=1;rounded=0;exitX=0;exitY=0.5;exitDx=0;exitDy=0;entryX=1;entryY=0.5;entryDx=0;entryDy=0;" edge="1" parent="1" source="xLAtc9gtNEq5Ne8GK9qX-3" target="xLAtc9gtNEq5Ne8GK9qX-8">
          <mxGeometry width="50" height="50" relative="1" as="geometry">
            <mxPoint x="250" y="120" as="sourcePoint" />
            <mxPoint x="215" y="150" as="targetPoint" />
          </mxGeometry>
        </mxCell>
        <mxCell id="xLAtc9gtNEq5Ne8GK9qX-15" value="" style="rhombus;" vertex="1" parent="1">
          <mxGeometry x="310" y="150" width="20" height="20" as="geometry" />
        </mxCell>
        <mxCell id="xLAtc9gtNEq5Ne8GK9qX-16" value="" style="endArrow=none;html=1;rounded=0;exitX=0;exitY=0.5;exitDx=0;exitDy=0;entryX=1;entryY=0.5;entryDx=0;entryDy=0;" edge="1" parent="1" source="xLAtc9gtNEq5Ne8GK9qX-15" target="xLAtc9gtNEq5Ne8GK9qX-3">
          <mxGeometry width="50" height="50" relative="1" as="geometry">
            <mxPoint x="170" y="170" as="sourcePoint" />
            <mxPoint x="120" y="170" as="targetPoint" />
          </mxGeometry>
        </mxCell>
        <mxCell id="xLAtc9gtNEq5Ne8GK9qX-17" value="Menu" style="html=1;whiteSpace=wrap;" vertex="1" parent="1">
          <mxGeometry x="380" y="140" width="90" height="40" as="geometry" />
        </mxCell>
        <mxCell id="xLAtc9gtNEq5Ne8GK9qX-18" value="id" style="ellipse;whiteSpace=wrap;html=1;" vertex="1" parent="1">
          <mxGeometry x="334" y="70" width="80" height="40" as="geometry" />
        </mxCell>
        <mxCell id="xLAtc9gtNEq5Ne8GK9qX-19" value="nama_menu" style="ellipse;whiteSpace=wrap;html=1;" vertex="1" parent="1">
          <mxGeometry x="385" y="30" width="80" height="40" as="geometry" />
        </mxCell>
        <mxCell id="xLAtc9gtNEq5Ne8GK9qX-20" value="jenis" style="ellipse;whiteSpace=wrap;html=1;" vertex="1" parent="1">
          <mxGeometry x="505" y="200" width="80" height="40" as="geometry" />
        </mxCell>
        <mxCell id="xLAtc9gtNEq5Ne8GK9qX-21" value="" style="endArrow=none;html=1;rounded=0;exitX=0.5;exitY=1;exitDx=0;exitDy=0;entryX=0;entryY=0;entryDx=0;entryDy=0;" edge="1" source="xLAtc9gtNEq5Ne8GK9qX-18" target="xLAtc9gtNEq5Ne8GK9qX-17" parent="1">
          <mxGeometry width="50" height="50" relative="1" as="geometry">
            <mxPoint x="470" y="130" as="sourcePoint" />
            <mxPoint x="520" y="80" as="targetPoint" />
          </mxGeometry>
        </mxCell>
        <mxCell id="xLAtc9gtNEq5Ne8GK9qX-22" value="" style="endArrow=none;html=1;rounded=0;exitX=0.5;exitY=1;exitDx=0;exitDy=0;entryX=0.5;entryY=0;entryDx=0;entryDy=0;" edge="1" source="xLAtc9gtNEq5Ne8GK9qX-19" target="xLAtc9gtNEq5Ne8GK9qX-17" parent="1">
          <mxGeometry width="50" height="50" relative="1" as="geometry">
            <mxPoint x="410" y="120" as="sourcePoint" />
            <mxPoint x="420" y="150" as="targetPoint" />
          </mxGeometry>
        </mxCell>
        <mxCell id="xLAtc9gtNEq5Ne8GK9qX-23" value="" style="endArrow=none;html=1;rounded=0;entryX=1;entryY=1;entryDx=0;entryDy=0;exitX=0;exitY=0.5;exitDx=0;exitDy=0;" edge="1" source="xLAtc9gtNEq5Ne8GK9qX-20" target="xLAtc9gtNEq5Ne8GK9qX-17" parent="1">
          <mxGeometry width="50" height="50" relative="1" as="geometry">
            <mxPoint x="545" y="220" as="sourcePoint" />
            <mxPoint x="465" y="220" as="targetPoint" />
          </mxGeometry>
        </mxCell>
        <mxCell id="xLAtc9gtNEq5Ne8GK9qX-24" value="" style="endArrow=none;html=1;rounded=0;exitX=1;exitY=0.5;exitDx=0;exitDy=0;entryX=0;entryY=0.5;entryDx=0;entryDy=0;" edge="1" parent="1" source="xLAtc9gtNEq5Ne8GK9qX-15" target="xLAtc9gtNEq5Ne8GK9qX-17">
          <mxGeometry width="50" height="50" relative="1" as="geometry">
            <mxPoint x="410" y="120" as="sourcePoint" />
            <mxPoint x="420" y="150" as="targetPoint" />
          </mxGeometry>
        </mxCell>
        <mxCell id="xLAtc9gtNEq5Ne8GK9qX-25" value="harga" style="ellipse;whiteSpace=wrap;html=1;" vertex="1" parent="1">
          <mxGeometry x="440" y="70" width="80" height="40" as="geometry" />
        </mxCell>
        <mxCell id="xLAtc9gtNEq5Ne8GK9qX-26" value="" style="endArrow=none;html=1;rounded=0;exitX=0.5;exitY=1;exitDx=0;exitDy=0;entryX=0.75;entryY=0;entryDx=0;entryDy=0;" edge="1" source="xLAtc9gtNEq5Ne8GK9qX-25" parent="1" target="xLAtc9gtNEq5Ne8GK9qX-17">
          <mxGeometry width="50" height="50" relative="1" as="geometry">
            <mxPoint x="465" y="160" as="sourcePoint" />
            <mxPoint x="480" y="180" as="targetPoint" />
          </mxGeometry>
        </mxCell>
        <mxCell id="xLAtc9gtNEq5Ne8GK9qX-27" value="image" style="ellipse;whiteSpace=wrap;html=1;" vertex="1" parent="1">
          <mxGeometry x="510" y="40" width="80" height="40" as="geometry" />
        </mxCell>
        <mxCell id="xLAtc9gtNEq5Ne8GK9qX-28" value="" style="endArrow=none;html=1;rounded=0;exitX=0.5;exitY=1;exitDx=0;exitDy=0;entryX=1;entryY=0;entryDx=0;entryDy=0;" edge="1" source="xLAtc9gtNEq5Ne8GK9qX-27" parent="1" target="xLAtc9gtNEq5Ne8GK9qX-17">
          <mxGeometry width="50" height="50" relative="1" as="geometry">
            <mxPoint x="535" y="130" as="sourcePoint" />
            <mxPoint x="518" y="110" as="targetPoint" />
          </mxGeometry>
        </mxCell>
        <mxCell id="xLAtc9gtNEq5Ne8GK9qX-29" value="" style="endArrow=none;html=1;rounded=0;exitX=0;exitY=1;exitDx=0;exitDy=0;entryX=1;entryY=0.25;entryDx=0;entryDy=0;" edge="1" source="xLAtc9gtNEq5Ne8GK9qX-30" parent="1" target="xLAtc9gtNEq5Ne8GK9qX-17">
          <mxGeometry width="50" height="50" relative="1" as="geometry">
            <mxPoint x="565" y="180" as="sourcePoint" />
            <mxPoint x="500" y="190" as="targetPoint" />
          </mxGeometry>
        </mxCell>
        <mxCell id="xLAtc9gtNEq5Ne8GK9qX-30" value="deskripsi" style="ellipse;whiteSpace=wrap;html=1;" vertex="1" parent="1">
          <mxGeometry x="540" y="90" width="80" height="40" as="geometry" />
        </mxCell>
        <mxCell id="xLAtc9gtNEq5Ne8GK9qX-31" value="" style="rhombus;" vertex="1" parent="1">
          <mxGeometry x="580" y="150" width="20" height="20" as="geometry" />
        </mxCell>
        <mxCell id="xLAtc9gtNEq5Ne8GK9qX-32" value="" style="endArrow=none;html=1;rounded=0;exitX=0;exitY=0.5;exitDx=0;exitDy=0;entryX=1;entryY=0.5;entryDx=0;entryDy=0;" edge="1" source="xLAtc9gtNEq5Ne8GK9qX-31" parent="1" target="xLAtc9gtNEq5Ne8GK9qX-17">
          <mxGeometry width="50" height="50" relative="1" as="geometry">
            <mxPoint x="440" y="170" as="sourcePoint" />
            <mxPoint x="520" y="160" as="targetPoint" />
          </mxGeometry>
        </mxCell>
        <mxCell id="xLAtc9gtNEq5Ne8GK9qX-33" value="jenis" style="html=1;whiteSpace=wrap;" vertex="1" parent="1">
          <mxGeometry x="686" y="140" width="90" height="40" as="geometry" />
        </mxCell>
        <mxCell id="xLAtc9gtNEq5Ne8GK9qX-35" value="nama_jenis" style="ellipse;whiteSpace=wrap;html=1;" vertex="1" parent="1">
          <mxGeometry x="686" y="70" width="80" height="40" as="geometry" />
        </mxCell>
        <mxCell id="xLAtc9gtNEq5Ne8GK9qX-36" value="kategori_id" style="ellipse;whiteSpace=wrap;html=1;" vertex="1" parent="1">
          <mxGeometry x="820" y="160" width="80" height="40" as="geometry" />
        </mxCell>
        <mxCell id="xLAtc9gtNEq5Ne8GK9qX-38" value="" style="endArrow=none;html=1;rounded=0;exitX=0.5;exitY=1;exitDx=0;exitDy=0;entryX=0.5;entryY=0;entryDx=0;entryDy=0;" edge="1" source="xLAtc9gtNEq5Ne8GK9qX-35" target="xLAtc9gtNEq5Ne8GK9qX-33" parent="1">
          <mxGeometry width="50" height="50" relative="1" as="geometry">
            <mxPoint x="716" y="120" as="sourcePoint" />
            <mxPoint x="726" y="150" as="targetPoint" />
          </mxGeometry>
        </mxCell>
        <mxCell id="xLAtc9gtNEq5Ne8GK9qX-39" value="" style="endArrow=none;html=1;rounded=0;entryX=1;entryY=0.5;entryDx=0;entryDy=0;exitX=0;exitY=0.5;exitDx=0;exitDy=0;" edge="1" source="xLAtc9gtNEq5Ne8GK9qX-36" target="xLAtc9gtNEq5Ne8GK9qX-33" parent="1">
          <mxGeometry width="50" height="50" relative="1" as="geometry">
            <mxPoint x="851" y="220" as="sourcePoint" />
            <mxPoint x="771" y="220" as="targetPoint" />
          </mxGeometry>
        </mxCell>
        <mxCell id="xLAtc9gtNEq5Ne8GK9qX-42" value="id" style="ellipse;whiteSpace=wrap;html=1;" vertex="1" parent="1">
          <mxGeometry x="800" y="80" width="80" height="40" as="geometry" />
        </mxCell>
        <mxCell id="xLAtc9gtNEq5Ne8GK9qX-43" value="" style="endArrow=none;html=1;rounded=0;exitX=0;exitY=1;exitDx=0;exitDy=0;entryX=1;entryY=0;entryDx=0;entryDy=0;" edge="1" source="xLAtc9gtNEq5Ne8GK9qX-42" target="xLAtc9gtNEq5Ne8GK9qX-33" parent="1">
          <mxGeometry width="50" height="50" relative="1" as="geometry">
            <mxPoint x="841" y="130" as="sourcePoint" />
            <mxPoint x="824" y="110" as="targetPoint" />
          </mxGeometry>
        </mxCell>
        <mxCell id="xLAtc9gtNEq5Ne8GK9qX-46" value="" style="rhombus;" vertex="1" parent="1">
          <mxGeometry x="721" y="260" width="20" height="20" as="geometry" />
        </mxCell>
        <mxCell id="xLAtc9gtNEq5Ne8GK9qX-47" value="" style="endArrow=none;html=1;rounded=0;exitX=0.5;exitY=0;exitDx=0;exitDy=0;entryX=0.5;entryY=1;entryDx=0;entryDy=0;" edge="1" source="xLAtc9gtNEq5Ne8GK9qX-46" target="xLAtc9gtNEq5Ne8GK9qX-33" parent="1">
          <mxGeometry width="50" height="50" relative="1" as="geometry">
            <mxPoint x="581" y="280" as="sourcePoint" />
            <mxPoint x="727" y="190" as="targetPoint" />
          </mxGeometry>
        </mxCell>
        <mxCell id="xLAtc9gtNEq5Ne8GK9qX-48" value="" style="endArrow=none;html=1;rounded=0;exitX=0;exitY=0.5;exitDx=0;exitDy=0;entryX=1;entryY=0.5;entryDx=0;entryDy=0;" edge="1" parent="1" source="xLAtc9gtNEq5Ne8GK9qX-33" target="xLAtc9gtNEq5Ne8GK9qX-31">
          <mxGeometry width="50" height="50" relative="1" as="geometry">
            <mxPoint x="590" y="170" as="sourcePoint" />
            <mxPoint x="480" y="170" as="targetPoint" />
          </mxGeometry>
        </mxCell>
        <mxCell id="xLAtc9gtNEq5Ne8GK9qX-49" value="kategori" style="html=1;whiteSpace=wrap;" vertex="1" parent="1">
          <mxGeometry x="686" y="350" width="90" height="40" as="geometry" />
        </mxCell>
        <mxCell id="xLAtc9gtNEq5Ne8GK9qX-51" value="nama_kategori" style="ellipse;whiteSpace=wrap;html=1;" vertex="1" parent="1">
          <mxGeometry x="820" y="370" width="100" height="40" as="geometry" />
        </mxCell>
        <mxCell id="xLAtc9gtNEq5Ne8GK9qX-53" value="" style="endArrow=none;html=1;rounded=0;entryX=1;entryY=0.5;entryDx=0;entryDy=0;exitX=0;exitY=0.5;exitDx=0;exitDy=0;" edge="1" source="xLAtc9gtNEq5Ne8GK9qX-51" target="xLAtc9gtNEq5Ne8GK9qX-49" parent="1">
          <mxGeometry width="50" height="50" relative="1" as="geometry">
            <mxPoint x="851" y="430" as="sourcePoint" />
            <mxPoint x="771" y="430" as="targetPoint" />
          </mxGeometry>
        </mxCell>
        <mxCell id="xLAtc9gtNEq5Ne8GK9qX-54" value="id" style="ellipse;whiteSpace=wrap;html=1;" vertex="1" parent="1">
          <mxGeometry x="800" y="290" width="80" height="40" as="geometry" />
        </mxCell>
        <mxCell id="xLAtc9gtNEq5Ne8GK9qX-55" value="" style="endArrow=none;html=1;rounded=0;exitX=0;exitY=1;exitDx=0;exitDy=0;entryX=1;entryY=0;entryDx=0;entryDy=0;" edge="1" source="xLAtc9gtNEq5Ne8GK9qX-54" target="xLAtc9gtNEq5Ne8GK9qX-49" parent="1">
          <mxGeometry width="50" height="50" relative="1" as="geometry">
            <mxPoint x="841" y="340" as="sourcePoint" />
            <mxPoint x="824" y="320" as="targetPoint" />
          </mxGeometry>
        </mxCell>
        <mxCell id="xLAtc9gtNEq5Ne8GK9qX-56" value="" style="endArrow=none;html=1;rounded=0;exitX=0.5;exitY=0;exitDx=0;exitDy=0;entryX=0.5;entryY=1;entryDx=0;entryDy=0;" edge="1" parent="1" source="xLAtc9gtNEq5Ne8GK9qX-49" target="xLAtc9gtNEq5Ne8GK9qX-46">
          <mxGeometry width="50" height="50" relative="1" as="geometry">
            <mxPoint x="741" y="270" as="sourcePoint" />
            <mxPoint x="741" y="190" as="targetPoint" />
          </mxGeometry>
        </mxCell>
        <mxCell id="xLAtc9gtNEq5Ne8GK9qX-57" value="Pemesanan" style="html=1;whiteSpace=wrap;" vertex="1" parent="1">
          <mxGeometry x="69" y="346" width="90" height="40" as="geometry" />
        </mxCell>
        <mxCell id="xLAtc9gtNEq5Ne8GK9qX-58" value="id" style="ellipse;whiteSpace=wrap;html=1;" vertex="1" parent="1">
          <mxGeometry x="-6" y="286" width="80" height="40" as="geometry" />
        </mxCell>
        <mxCell id="xLAtc9gtNEq5Ne8GK9qX-59" value="meja_id" style="ellipse;whiteSpace=wrap;html=1;" vertex="1" parent="1">
          <mxGeometry x="24" y="226" width="80" height="40" as="geometry" />
        </mxCell>
        <mxCell id="xLAtc9gtNEq5Ne8GK9qX-60" value="jml_pelanggan" style="ellipse;whiteSpace=wrap;html=1;" vertex="1" parent="1">
          <mxGeometry x="-76" y="346" width="95" height="40" as="geometry" />
        </mxCell>
        <mxCell id="xLAtc9gtNEq5Ne8GK9qX-61" value="" style="endArrow=none;html=1;rounded=0;exitX=0.5;exitY=1;exitDx=0;exitDy=0;entryX=0;entryY=0;entryDx=0;entryDy=0;" edge="1" source="xLAtc9gtNEq5Ne8GK9qX-58" target="xLAtc9gtNEq5Ne8GK9qX-57" parent="1">
          <mxGeometry width="50" height="50" relative="1" as="geometry">
            <mxPoint x="129" y="336" as="sourcePoint" />
            <mxPoint x="179" y="286" as="targetPoint" />
          </mxGeometry>
        </mxCell>
        <mxCell id="xLAtc9gtNEq5Ne8GK9qX-62" value="" style="endArrow=none;html=1;rounded=0;exitX=0.5;exitY=1;exitDx=0;exitDy=0;entryX=0.25;entryY=0;entryDx=0;entryDy=0;" edge="1" source="xLAtc9gtNEq5Ne8GK9qX-59" target="xLAtc9gtNEq5Ne8GK9qX-57" parent="1">
          <mxGeometry width="50" height="50" relative="1" as="geometry">
            <mxPoint x="69" y="326" as="sourcePoint" />
            <mxPoint x="79" y="356" as="targetPoint" />
          </mxGeometry>
        </mxCell>
        <mxCell id="xLAtc9gtNEq5Ne8GK9qX-63" value="" style="endArrow=none;html=1;rounded=0;exitX=0;exitY=0.5;exitDx=0;exitDy=0;entryX=1;entryY=0.5;entryDx=0;entryDy=0;" edge="1" source="xLAtc9gtNEq5Ne8GK9qX-57" target="xLAtc9gtNEq5Ne8GK9qX-60" parent="1">
          <mxGeometry width="50" height="50" relative="1" as="geometry">
            <mxPoint x="159" y="326" as="sourcePoint" />
            <mxPoint x="124" y="356" as="targetPoint" />
          </mxGeometry>
        </mxCell>
        <mxCell id="xLAtc9gtNEq5Ne8GK9qX-64" value="" style="endArrow=none;html=1;rounded=0;exitX=0.5;exitY=1;exitDx=0;exitDy=0;entryX=0.5;entryY=0;entryDx=0;entryDy=0;" edge="1" source="xLAtc9gtNEq5Ne8GK9qX-65" parent="1" target="xLAtc9gtNEq5Ne8GK9qX-57">
          <mxGeometry width="50" height="50" relative="1" as="geometry">
            <mxPoint x="119" y="366" as="sourcePoint" />
            <mxPoint x="142" y="386" as="targetPoint" />
          </mxGeometry>
        </mxCell>
        <mxCell id="xLAtc9gtNEq5Ne8GK9qX-65" value="tgl_pemesanan" style="ellipse;whiteSpace=wrap;html=1;" vertex="1" parent="1">
          <mxGeometry x="89" y="196" width="100" height="40" as="geometry" />
        </mxCell>
        <mxCell id="xLAtc9gtNEq5Ne8GK9qX-66" value="jam_mulai" style="ellipse;whiteSpace=wrap;html=1;" vertex="1" parent="1">
          <mxGeometry x="144" y="246" width="100" height="40" as="geometry" />
        </mxCell>
        <mxCell id="xLAtc9gtNEq5Ne8GK9qX-67" value="" style="endArrow=none;html=1;rounded=0;exitX=0.5;exitY=1;exitDx=0;exitDy=0;entryX=1;entryY=0;entryDx=0;entryDy=0;" edge="1" source="xLAtc9gtNEq5Ne8GK9qX-66" parent="1" target="xLAtc9gtNEq5Ne8GK9qX-57">
          <mxGeometry width="50" height="50" relative="1" as="geometry">
            <mxPoint x="164" y="426" as="sourcePoint" />
            <mxPoint x="159" y="406" as="targetPoint" />
          </mxGeometry>
        </mxCell>
        <mxCell id="xLAtc9gtNEq5Ne8GK9qX-68" value="jam_selesai" style="ellipse;whiteSpace=wrap;html=1;" vertex="1" parent="1">
          <mxGeometry x="155" y="320" width="100" height="40" as="geometry" />
        </mxCell>
        <mxCell id="xLAtc9gtNEq5Ne8GK9qX-69" value="" style="endArrow=none;html=1;rounded=0;entryX=1;entryY=0.5;entryDx=0;entryDy=0;exitX=0;exitY=1;exitDx=0;exitDy=0;" edge="1" parent="1" target="xLAtc9gtNEq5Ne8GK9qX-57">
          <mxGeometry width="50" height="50" relative="1" as="geometry">
            <mxPoint x="203.64466094067257" y="330.14213562373106" as="sourcePoint" />
            <mxPoint x="194" y="396" as="targetPoint" />
          </mxGeometry>
        </mxCell>
        <mxCell id="xLAtc9gtNEq5Ne8GK9qX-70" value="" style="endArrow=none;html=1;rounded=0;entryX=1;entryY=0.75;entryDx=0;entryDy=0;exitX=0;exitY=0.5;exitDx=0;exitDy=0;" edge="1" source="xLAtc9gtNEq5Ne8GK9qX-71" parent="1" target="xLAtc9gtNEq5Ne8GK9qX-57">
          <mxGeometry width="50" height="50" relative="1" as="geometry">
            <mxPoint x="231.5" y="406" as="sourcePoint" />
            <mxPoint x="156.5" y="416" as="targetPoint" />
          </mxGeometry>
        </mxCell>
        <mxCell id="xLAtc9gtNEq5Ne8GK9qX-71" value="nama_pemesan" style="ellipse;whiteSpace=wrap;html=1;" vertex="1" parent="1">
          <mxGeometry x="168" y="386" width="100" height="40" as="geometry" />
        </mxCell>
        <mxCell id="xLAtc9gtNEq5Ne8GK9qX-72" value="" style="endArrow=none;html=1;rounded=0;exitX=0.5;exitY=0;exitDx=0;exitDy=0;entryX=0.5;entryY=1;entryDx=0;entryDy=0;" edge="1" source="xLAtc9gtNEq5Ne8GK9qX-73" parent="1" target="xLAtc9gtNEq5Ne8GK9qX-57">
          <mxGeometry width="50" height="50" relative="1" as="geometry">
            <mxPoint x="-36" y="456" as="sourcePoint" />
            <mxPoint x="44" y="446" as="targetPoint" />
          </mxGeometry>
        </mxCell>
        <mxCell id="xLAtc9gtNEq5Ne8GK9qX-73" value="" style="rhombus;" vertex="1" parent="1">
          <mxGeometry x="104" y="436" width="20" height="20" as="geometry" />
        </mxCell>
        <mxCell id="xLAtc9gtNEq5Ne8GK9qX-74" value="Pemesanan" style="html=1;whiteSpace=wrap;" vertex="1" parent="1">
          <mxGeometry x="69" y="516" width="90" height="40" as="geometry" />
        </mxCell>
        <mxCell id="xLAtc9gtNEq5Ne8GK9qX-75" value="id" style="ellipse;whiteSpace=wrap;html=1;" vertex="1" parent="1">
          <mxGeometry x="-36" y="476" width="80" height="40" as="geometry" />
        </mxCell>
        <mxCell id="xLAtc9gtNEq5Ne8GK9qX-77" value="nomor_meja" style="ellipse;whiteSpace=wrap;html=1;" vertex="1" parent="1">
          <mxGeometry x="-63.5" y="536" width="95" height="40" as="geometry" />
        </mxCell>
        <mxCell id="xLAtc9gtNEq5Ne8GK9qX-78" value="" style="endArrow=none;html=1;rounded=0;exitX=1;exitY=0.5;exitDx=0;exitDy=0;entryX=0;entryY=0;entryDx=0;entryDy=0;" edge="1" source="xLAtc9gtNEq5Ne8GK9qX-75" target="xLAtc9gtNEq5Ne8GK9qX-74" parent="1">
          <mxGeometry width="50" height="50" relative="1" as="geometry">
            <mxPoint x="109" y="526" as="sourcePoint" />
            <mxPoint x="159" y="476" as="targetPoint" />
          </mxGeometry>
        </mxCell>
        <mxCell id="xLAtc9gtNEq5Ne8GK9qX-80" value="" style="endArrow=none;html=1;rounded=0;exitX=0;exitY=0.5;exitDx=0;exitDy=0;entryX=1;entryY=0.5;entryDx=0;entryDy=0;" edge="1" source="xLAtc9gtNEq5Ne8GK9qX-74" target="xLAtc9gtNEq5Ne8GK9qX-77" parent="1">
          <mxGeometry width="50" height="50" relative="1" as="geometry">
            <mxPoint x="139" y="516" as="sourcePoint" />
            <mxPoint x="104" y="546" as="targetPoint" />
          </mxGeometry>
        </mxCell>
        <mxCell id="xLAtc9gtNEq5Ne8GK9qX-81" value="" style="endArrow=none;html=1;rounded=0;exitX=0.5;exitY=1;exitDx=0;exitDy=0;entryX=0.5;entryY=0;entryDx=0;entryDy=0;" edge="1" source="xLAtc9gtNEq5Ne8GK9qX-73" target="xLAtc9gtNEq5Ne8GK9qX-74" parent="1">
          <mxGeometry width="50" height="50" relative="1" as="geometry">
            <mxPoint x="164" y="436" as="sourcePoint" />
            <mxPoint x="122" y="576" as="targetPoint" />
          </mxGeometry>
        </mxCell>
        <mxCell id="xLAtc9gtNEq5Ne8GK9qX-83" value="kapasitas" style="ellipse;whiteSpace=wrap;html=1;" vertex="1" parent="1">
          <mxGeometry x="158" y="466" width="90" height="40" as="geometry" />
        </mxCell>
        <mxCell id="xLAtc9gtNEq5Ne8GK9qX-84" value="" style="endArrow=none;html=1;rounded=0;exitX=0;exitY=1;exitDx=0;exitDy=0;entryX=1;entryY=0;entryDx=0;entryDy=0;" edge="1" source="xLAtc9gtNEq5Ne8GK9qX-83" target="xLAtc9gtNEq5Ne8GK9qX-74" parent="1">
          <mxGeometry width="50" height="50" relative="1" as="geometry">
            <mxPoint x="144" y="616" as="sourcePoint" />
            <mxPoint x="139" y="596" as="targetPoint" />
          </mxGeometry>
        </mxCell>
        <mxCell id="xLAtc9gtNEq5Ne8GK9qX-87" value="" style="endArrow=none;html=1;rounded=0;entryX=1;entryY=0.75;entryDx=0;entryDy=0;exitX=0;exitY=0.5;exitDx=0;exitDy=0;" edge="1" source="xLAtc9gtNEq5Ne8GK9qX-88" target="xLAtc9gtNEq5Ne8GK9qX-74" parent="1">
          <mxGeometry width="50" height="50" relative="1" as="geometry">
            <mxPoint x="211.5" y="596" as="sourcePoint" />
            <mxPoint x="136.5" y="606" as="targetPoint" />
          </mxGeometry>
        </mxCell>
        <mxCell id="xLAtc9gtNEq5Ne8GK9qX-88" value="status" style="ellipse;whiteSpace=wrap;html=1;" vertex="1" parent="1">
          <mxGeometry x="194" y="526" width="80" height="40" as="geometry" />
        </mxCell>
        <mxCell id="xLAtc9gtNEq5Ne8GK9qX-89" value="" style="endArrow=none;html=1;rounded=0;entryX=0.5;entryY=1;entryDx=0;entryDy=0;exitX=0.5;exitY=0;exitDx=0;exitDy=0;" edge="1" parent="1" source="xLAtc9gtNEq5Ne8GK9qX-90" target="xLAtc9gtNEq5Ne8GK9qX-17">
          <mxGeometry width="50" height="50" relative="1" as="geometry">
            <mxPoint x="425" y="390" as="sourcePoint" />
            <mxPoint x="480" y="190" as="targetPoint" />
          </mxGeometry>
        </mxCell>
        <mxCell id="xLAtc9gtNEq5Ne8GK9qX-90" value="" style="rhombus;" vertex="1" parent="1">
          <mxGeometry x="415" y="280" width="20" height="20" as="geometry" />
        </mxCell>
        <mxCell id="xLAtc9gtNEq5Ne8GK9qX-93" value="detail transaksi" style="html=1;whiteSpace=wrap;" vertex="1" parent="1">
          <mxGeometry x="380" y="360" width="90" height="40" as="geometry" />
        </mxCell>
        <mxCell id="xLAtc9gtNEq5Ne8GK9qX-94" value="id" style="ellipse;whiteSpace=wrap;html=1;" vertex="1" parent="1">
          <mxGeometry x="300" y="300" width="80" height="40" as="geometry" />
        </mxCell>
        <mxCell id="xLAtc9gtNEq5Ne8GK9qX-95" value="menu_id" style="ellipse;whiteSpace=wrap;html=1;" vertex="1" parent="1">
          <mxGeometry x="450" y="290" width="80" height="40" as="geometry" />
        </mxCell>
        <mxCell id="xLAtc9gtNEq5Ne8GK9qX-96" value="transaksi_id" style="ellipse;whiteSpace=wrap;html=1;" vertex="1" parent="1">
          <mxGeometry x="260" y="360" width="80" height="40" as="geometry" />
        </mxCell>
        <mxCell id="xLAtc9gtNEq5Ne8GK9qX-97" value="" style="endArrow=none;html=1;rounded=0;exitX=0.5;exitY=1;exitDx=0;exitDy=0;entryX=0;entryY=0;entryDx=0;entryDy=0;" edge="1" source="xLAtc9gtNEq5Ne8GK9qX-94" target="xLAtc9gtNEq5Ne8GK9qX-93" parent="1">
          <mxGeometry width="50" height="50" relative="1" as="geometry">
            <mxPoint x="450" y="350" as="sourcePoint" />
            <mxPoint x="500" y="300" as="targetPoint" />
          </mxGeometry>
        </mxCell>
        <mxCell id="xLAtc9gtNEq5Ne8GK9qX-98" value="" style="endArrow=none;html=1;rounded=0;exitX=0.5;exitY=1;exitDx=0;exitDy=0;entryX=1;entryY=0;entryDx=0;entryDy=0;" edge="1" source="xLAtc9gtNEq5Ne8GK9qX-95" target="xLAtc9gtNEq5Ne8GK9qX-93" parent="1">
          <mxGeometry width="50" height="50" relative="1" as="geometry">
            <mxPoint x="410" y="340" as="sourcePoint" />
            <mxPoint x="455" y="360" as="targetPoint" />
          </mxGeometry>
        </mxCell>
        <mxCell id="xLAtc9gtNEq5Ne8GK9qX-99" value="" style="endArrow=none;html=1;rounded=0;exitX=0;exitY=0.5;exitDx=0;exitDy=0;entryX=1;entryY=0.5;entryDx=0;entryDy=0;" edge="1" source="xLAtc9gtNEq5Ne8GK9qX-93" target="xLAtc9gtNEq5Ne8GK9qX-96" parent="1">
          <mxGeometry width="50" height="50" relative="1" as="geometry">
            <mxPoint x="480" y="340" as="sourcePoint" />
            <mxPoint x="445" y="370" as="targetPoint" />
          </mxGeometry>
        </mxCell>
        <mxCell id="xLAtc9gtNEq5Ne8GK9qX-100" value="" style="endArrow=none;html=1;rounded=0;entryX=0.5;entryY=1;entryDx=0;entryDy=0;exitX=0.5;exitY=0;exitDx=0;exitDy=0;" edge="1" parent="1" source="xLAtc9gtNEq5Ne8GK9qX-93" target="xLAtc9gtNEq5Ne8GK9qX-90">
          <mxGeometry width="50" height="50" relative="1" as="geometry">
            <mxPoint x="433" y="290" as="sourcePoint" />
            <mxPoint x="435" y="190" as="targetPoint" />
          </mxGeometry>
        </mxCell>
        <mxCell id="xLAtc9gtNEq5Ne8GK9qX-101" value="" style="endArrow=none;html=1;rounded=0;exitX=0;exitY=1;exitDx=0;exitDy=0;entryX=1;entryY=0.5;entryDx=0;entryDy=0;" edge="1" source="xLAtc9gtNEq5Ne8GK9qX-102" parent="1" target="xLAtc9gtNEq5Ne8GK9qX-93">
          <mxGeometry width="50" height="50" relative="1" as="geometry">
            <mxPoint x="460" y="395" as="sourcePoint" />
            <mxPoint x="520" y="415" as="targetPoint" />
          </mxGeometry>
        </mxCell>
        <mxCell id="xLAtc9gtNEq5Ne8GK9qX-102" value="jumlah" style="ellipse;whiteSpace=wrap;html=1;" vertex="1" parent="1">
          <mxGeometry x="510" y="330" width="80" height="40" as="geometry" />
        </mxCell>
        <mxCell id="xLAtc9gtNEq5Ne8GK9qX-103" value="" style="endArrow=none;html=1;rounded=0;exitX=0;exitY=0.5;exitDx=0;exitDy=0;entryX=1;entryY=0.75;entryDx=0;entryDy=0;" edge="1" source="xLAtc9gtNEq5Ne8GK9qX-104" parent="1" target="xLAtc9gtNEq5Ne8GK9qX-93">
          <mxGeometry width="50" height="50" relative="1" as="geometry">
            <mxPoint x="470" y="445" as="sourcePoint" />
            <mxPoint x="480" y="430" as="targetPoint" />
          </mxGeometry>
        </mxCell>
        <mxCell id="xLAtc9gtNEq5Ne8GK9qX-104" value="subtotal" style="ellipse;whiteSpace=wrap;html=1;" vertex="1" parent="1">
          <mxGeometry x="500" y="390" width="80" height="40" as="geometry" />
        </mxCell>
        <mxCell id="xLAtc9gtNEq5Ne8GK9qX-107" value="" style="rhombus;" vertex="1" parent="1">
          <mxGeometry x="415" y="475" width="20" height="20" as="geometry" />
        </mxCell>
        <mxCell id="xLAtc9gtNEq5Ne8GK9qX-108" value="transaksi" style="html=1;whiteSpace=wrap;" vertex="1" parent="1">
          <mxGeometry x="380" y="555" width="90" height="40" as="geometry" />
        </mxCell>
        <mxCell id="xLAtc9gtNEq5Ne8GK9qX-109" value="id" style="ellipse;whiteSpace=wrap;html=1;" vertex="1" parent="1">
          <mxGeometry x="295" y="495" width="80" height="40" as="geometry" />
        </mxCell>
        <mxCell id="xLAtc9gtNEq5Ne8GK9qX-110" value="tanggal" style="ellipse;whiteSpace=wrap;html=1;" vertex="1" parent="1">
          <mxGeometry x="435" y="465" width="80" height="40" as="geometry" />
        </mxCell>
        <mxCell id="xLAtc9gtNEq5Ne8GK9qX-111" value="keterangan" style="ellipse;whiteSpace=wrap;html=1;" vertex="1" parent="1">
          <mxGeometry x="255" y="555" width="80" height="40" as="geometry" />
        </mxCell>
        <mxCell id="xLAtc9gtNEq5Ne8GK9qX-112" value="" style="endArrow=none;html=1;rounded=0;exitX=0.5;exitY=1;exitDx=0;exitDy=0;entryX=0;entryY=0;entryDx=0;entryDy=0;" edge="1" source="xLAtc9gtNEq5Ne8GK9qX-109" target="xLAtc9gtNEq5Ne8GK9qX-108" parent="1">
          <mxGeometry width="50" height="50" relative="1" as="geometry">
            <mxPoint x="445" y="545" as="sourcePoint" />
            <mxPoint x="495" y="495" as="targetPoint" />
          </mxGeometry>
        </mxCell>
        <mxCell id="xLAtc9gtNEq5Ne8GK9qX-113" value="" style="endArrow=none;html=1;rounded=0;exitX=0.5;exitY=1;exitDx=0;exitDy=0;entryX=0.75;entryY=0;entryDx=0;entryDy=0;" edge="1" source="xLAtc9gtNEq5Ne8GK9qX-110" target="xLAtc9gtNEq5Ne8GK9qX-108" parent="1">
          <mxGeometry width="50" height="50" relative="1" as="geometry">
            <mxPoint x="405" y="535" as="sourcePoint" />
            <mxPoint x="450" y="555" as="targetPoint" />
          </mxGeometry>
        </mxCell>
        <mxCell id="xLAtc9gtNEq5Ne8GK9qX-114" value="" style="endArrow=none;html=1;rounded=0;exitX=0;exitY=0.5;exitDx=0;exitDy=0;entryX=1;entryY=0.5;entryDx=0;entryDy=0;" edge="1" source="xLAtc9gtNEq5Ne8GK9qX-108" target="xLAtc9gtNEq5Ne8GK9qX-111" parent="1">
          <mxGeometry width="50" height="50" relative="1" as="geometry">
            <mxPoint x="475" y="535" as="sourcePoint" />
            <mxPoint x="440" y="565" as="targetPoint" />
          </mxGeometry>
        </mxCell>
        <mxCell id="xLAtc9gtNEq5Ne8GK9qX-115" value="" style="endArrow=none;html=1;rounded=0;entryX=0.5;entryY=1;entryDx=0;entryDy=0;exitX=0.5;exitY=0;exitDx=0;exitDy=0;" edge="1" source="xLAtc9gtNEq5Ne8GK9qX-108" target="xLAtc9gtNEq5Ne8GK9qX-107" parent="1">
          <mxGeometry width="50" height="50" relative="1" as="geometry">
            <mxPoint x="428" y="485" as="sourcePoint" />
            <mxPoint x="430" y="385" as="targetPoint" />
          </mxGeometry>
        </mxCell>
        <mxCell id="xLAtc9gtNEq5Ne8GK9qX-116" value="" style="endArrow=none;html=1;rounded=0;exitX=0;exitY=1;exitDx=0;exitDy=0;entryX=1;entryY=0;entryDx=0;entryDy=0;" edge="1" source="xLAtc9gtNEq5Ne8GK9qX-117" target="xLAtc9gtNEq5Ne8GK9qX-108" parent="1">
          <mxGeometry width="50" height="50" relative="1" as="geometry">
            <mxPoint x="455" y="590" as="sourcePoint" />
            <mxPoint x="515" y="610" as="targetPoint" />
          </mxGeometry>
        </mxCell>
        <mxCell id="xLAtc9gtNEq5Ne8GK9qX-117" value="total_harga" style="ellipse;whiteSpace=wrap;html=1;" vertex="1" parent="1">
          <mxGeometry x="495" y="505" width="80" height="40" as="geometry" />
        </mxCell>
        <mxCell id="xLAtc9gtNEq5Ne8GK9qX-118" value="" style="endArrow=none;html=1;rounded=0;exitX=0;exitY=0;exitDx=0;exitDy=0;entryX=1;entryY=1;entryDx=0;entryDy=0;" edge="1" source="xLAtc9gtNEq5Ne8GK9qX-119" target="xLAtc9gtNEq5Ne8GK9qX-108" parent="1">
          <mxGeometry width="50" height="50" relative="1" as="geometry">
            <mxPoint x="465" y="640" as="sourcePoint" />
            <mxPoint x="475" y="625" as="targetPoint" />
          </mxGeometry>
        </mxCell>
        <mxCell id="xLAtc9gtNEq5Ne8GK9qX-119" value="metode_pembayaran" style="ellipse;whiteSpace=wrap;html=1;" vertex="1" parent="1">
          <mxGeometry x="482.5" y="610" width="125" height="40" as="geometry" />
        </mxCell>
        <mxCell id="xLAtc9gtNEq5Ne8GK9qX-120" value="" style="endArrow=none;html=1;rounded=0;entryX=0.5;entryY=1;entryDx=0;entryDy=0;exitX=0.5;exitY=0;exitDx=0;exitDy=0;" edge="1" parent="1" source="xLAtc9gtNEq5Ne8GK9qX-107" target="xLAtc9gtNEq5Ne8GK9qX-93">
          <mxGeometry width="50" height="50" relative="1" as="geometry">
            <mxPoint x="430" y="565" as="sourcePoint" />
            <mxPoint x="430" y="505" as="targetPoint" />
          </mxGeometry>
        </mxCell>
        <mxCell id="xLAtc9gtNEq5Ne8GK9qX-122" value="" style="rhombus;" vertex="1" parent="1">
          <mxGeometry x="415" y="660" width="20" height="20" as="geometry" />
        </mxCell>
        <mxCell id="xLAtc9gtNEq5Ne8GK9qX-123" value="pelanggan" style="html=1;whiteSpace=wrap;" vertex="1" parent="1">
          <mxGeometry x="380" y="750" width="90" height="40" as="geometry" />
        </mxCell>
        <mxCell id="xLAtc9gtNEq5Ne8GK9qX-124" value="id" style="ellipse;whiteSpace=wrap;html=1;" vertex="1" parent="1">
          <mxGeometry x="295" y="690" width="80" height="40" as="geometry" />
        </mxCell>
        <mxCell id="xLAtc9gtNEq5Ne8GK9qX-125" value="nama" style="ellipse;whiteSpace=wrap;html=1;" vertex="1" parent="1">
          <mxGeometry x="445" y="680" width="80" height="40" as="geometry" />
        </mxCell>
        <mxCell id="xLAtc9gtNEq5Ne8GK9qX-126" value="alamat" style="ellipse;whiteSpace=wrap;html=1;" vertex="1" parent="1">
          <mxGeometry x="255" y="750" width="80" height="40" as="geometry" />
        </mxCell>
        <mxCell id="xLAtc9gtNEq5Ne8GK9qX-127" value="" style="endArrow=none;html=1;rounded=0;exitX=0.5;exitY=1;exitDx=0;exitDy=0;entryX=0;entryY=0;entryDx=0;entryDy=0;" edge="1" source="xLAtc9gtNEq5Ne8GK9qX-124" target="xLAtc9gtNEq5Ne8GK9qX-123" parent="1">
          <mxGeometry width="50" height="50" relative="1" as="geometry">
            <mxPoint x="445" y="740" as="sourcePoint" />
            <mxPoint x="495" y="690" as="targetPoint" />
          </mxGeometry>
        </mxCell>
        <mxCell id="xLAtc9gtNEq5Ne8GK9qX-128" value="" style="endArrow=none;html=1;rounded=0;exitX=0.5;exitY=1;exitDx=0;exitDy=0;entryX=1;entryY=0;entryDx=0;entryDy=0;" edge="1" source="xLAtc9gtNEq5Ne8GK9qX-125" target="xLAtc9gtNEq5Ne8GK9qX-123" parent="1">
          <mxGeometry width="50" height="50" relative="1" as="geometry">
            <mxPoint x="405" y="730" as="sourcePoint" />
            <mxPoint x="450" y="750" as="targetPoint" />
          </mxGeometry>
        </mxCell>
        <mxCell id="xLAtc9gtNEq5Ne8GK9qX-129" value="" style="endArrow=none;html=1;rounded=0;exitX=0;exitY=0.5;exitDx=0;exitDy=0;entryX=1;entryY=0.5;entryDx=0;entryDy=0;" edge="1" source="xLAtc9gtNEq5Ne8GK9qX-123" target="xLAtc9gtNEq5Ne8GK9qX-126" parent="1">
          <mxGeometry width="50" height="50" relative="1" as="geometry">
            <mxPoint x="475" y="730" as="sourcePoint" />
            <mxPoint x="440" y="760" as="targetPoint" />
          </mxGeometry>
        </mxCell>
        <mxCell id="xLAtc9gtNEq5Ne8GK9qX-130" value="" style="endArrow=none;html=1;rounded=0;entryX=0.5;entryY=1;entryDx=0;entryDy=0;exitX=0.5;exitY=0;exitDx=0;exitDy=0;" edge="1" source="xLAtc9gtNEq5Ne8GK9qX-123" target="xLAtc9gtNEq5Ne8GK9qX-122" parent="1">
          <mxGeometry width="50" height="50" relative="1" as="geometry">
            <mxPoint x="428" y="680" as="sourcePoint" />
            <mxPoint x="430" y="580" as="targetPoint" />
          </mxGeometry>
        </mxCell>
        <mxCell id="xLAtc9gtNEq5Ne8GK9qX-131" value="" style="endArrow=none;html=1;rounded=0;exitX=0;exitY=1;exitDx=0;exitDy=0;entryX=1;entryY=0.5;entryDx=0;entryDy=0;" edge="1" source="xLAtc9gtNEq5Ne8GK9qX-132" target="xLAtc9gtNEq5Ne8GK9qX-123" parent="1">
          <mxGeometry width="50" height="50" relative="1" as="geometry">
            <mxPoint x="455" y="785" as="sourcePoint" />
            <mxPoint x="515" y="805" as="targetPoint" />
          </mxGeometry>
        </mxCell>
        <mxCell id="xLAtc9gtNEq5Ne8GK9qX-132" value="email" style="ellipse;whiteSpace=wrap;html=1;" vertex="1" parent="1">
          <mxGeometry x="505" y="720" width="80" height="40" as="geometry" />
        </mxCell>
        <mxCell id="xLAtc9gtNEq5Ne8GK9qX-133" value="" style="endArrow=none;html=1;rounded=0;exitX=0;exitY=0.5;exitDx=0;exitDy=0;entryX=1;entryY=0.75;entryDx=0;entryDy=0;" edge="1" source="xLAtc9gtNEq5Ne8GK9qX-134" target="xLAtc9gtNEq5Ne8GK9qX-123" parent="1">
          <mxGeometry width="50" height="50" relative="1" as="geometry">
            <mxPoint x="465" y="835" as="sourcePoint" />
            <mxPoint x="475" y="820" as="targetPoint" />
          </mxGeometry>
        </mxCell>
        <mxCell id="xLAtc9gtNEq5Ne8GK9qX-134" value="no_tlp" style="ellipse;whiteSpace=wrap;html=1;" vertex="1" parent="1">
          <mxGeometry x="495" y="780" width="85" height="40" as="geometry" />
        </mxCell>
        <mxCell id="xLAtc9gtNEq5Ne8GK9qX-135" value="" style="endArrow=none;html=1;rounded=0;entryX=0.5;entryY=1;entryDx=0;entryDy=0;exitX=0.5;exitY=0;exitDx=0;exitDy=0;" edge="1" source="xLAtc9gtNEq5Ne8GK9qX-122" parent="1" target="xLAtc9gtNEq5Ne8GK9qX-108">
          <mxGeometry width="50" height="50" relative="1" as="geometry">
            <mxPoint x="430" y="760" as="sourcePoint" />
            <mxPoint x="425" y="595" as="targetPoint" />
          </mxGeometry>
        </mxCell>
        <mxCell id="xLAtc9gtNEq5Ne8GK9qX-136" value="" style="endArrow=none;html=1;rounded=0;entryX=1;entryY=0.5;entryDx=0;entryDy=0;exitX=0;exitY=0.5;exitDx=0;exitDy=0;" edge="1" parent="1" source="xLAtc9gtNEq5Ne8GK9qX-137" target="xLAtc9gtNEq5Ne8GK9qX-108">
          <mxGeometry width="50" height="50" relative="1" as="geometry">
            <mxPoint x="600" y="575" as="sourcePoint" />
            <mxPoint x="480" y="605" as="targetPoint" />
          </mxGeometry>
        </mxCell>
        <mxCell id="xLAtc9gtNEq5Ne8GK9qX-137" value="" style="rhombus;" vertex="1" parent="1">
          <mxGeometry x="600" y="565" width="20" height="20" as="geometry" />
        </mxCell>
        <mxCell id="xLAtc9gtNEq5Ne8GK9qX-138" value="user" style="html=1;whiteSpace=wrap;" vertex="1" parent="1">
          <mxGeometry x="721" y="555" width="90" height="40" as="geometry" />
        </mxCell>
        <mxCell id="xLAtc9gtNEq5Ne8GK9qX-139" value="email" style="ellipse;whiteSpace=wrap;html=1;" vertex="1" parent="1">
          <mxGeometry x="855" y="575" width="75" height="45" as="geometry" />
        </mxCell>
        <mxCell id="xLAtc9gtNEq5Ne8GK9qX-140" value="" style="endArrow=none;html=1;rounded=0;entryX=1;entryY=0.5;entryDx=0;entryDy=0;exitX=0;exitY=0.5;exitDx=0;exitDy=0;" edge="1" source="xLAtc9gtNEq5Ne8GK9qX-139" target="xLAtc9gtNEq5Ne8GK9qX-138" parent="1">
          <mxGeometry width="50" height="50" relative="1" as="geometry">
            <mxPoint x="886" y="635" as="sourcePoint" />
            <mxPoint x="806" y="635" as="targetPoint" />
          </mxGeometry>
        </mxCell>
        <mxCell id="xLAtc9gtNEq5Ne8GK9qX-141" value="name" style="ellipse;whiteSpace=wrap;html=1;" vertex="1" parent="1">
          <mxGeometry x="835" y="495" width="80" height="40" as="geometry" />
        </mxCell>
        <mxCell id="xLAtc9gtNEq5Ne8GK9qX-142" value="" style="endArrow=none;html=1;rounded=0;exitX=0;exitY=1;exitDx=0;exitDy=0;entryX=1;entryY=0;entryDx=0;entryDy=0;" edge="1" source="xLAtc9gtNEq5Ne8GK9qX-141" target="xLAtc9gtNEq5Ne8GK9qX-138" parent="1">
          <mxGeometry width="50" height="50" relative="1" as="geometry">
            <mxPoint x="876" y="545" as="sourcePoint" />
            <mxPoint x="859" y="525" as="targetPoint" />
          </mxGeometry>
        </mxCell>
        <mxCell id="xLAtc9gtNEq5Ne8GK9qX-143" value="" style="endArrow=none;html=1;rounded=0;entryX=1;entryY=0.5;entryDx=0;entryDy=0;exitX=0;exitY=0.5;exitDx=0;exitDy=0;" edge="1" parent="1" source="xLAtc9gtNEq5Ne8GK9qX-138" target="xLAtc9gtNEq5Ne8GK9qX-137">
          <mxGeometry width="50" height="50" relative="1" as="geometry">
            <mxPoint x="610" y="585" as="sourcePoint" />
            <mxPoint x="480" y="585" as="targetPoint" />
          </mxGeometry>
        </mxCell>
        <mxCell id="xLAtc9gtNEq5Ne8GK9qX-144" value="id" style="ellipse;whiteSpace=wrap;html=1;" vertex="1" parent="1">
          <mxGeometry x="726" y="480" width="80" height="40" as="geometry" />
        </mxCell>
        <mxCell id="xLAtc9gtNEq5Ne8GK9qX-145" value="" style="endArrow=none;html=1;rounded=0;exitX=0.5;exitY=1;exitDx=0;exitDy=0;entryX=0.5;entryY=0;entryDx=0;entryDy=0;" edge="1" source="xLAtc9gtNEq5Ne8GK9qX-144" parent="1" target="xLAtc9gtNEq5Ne8GK9qX-138">
          <mxGeometry width="50" height="50" relative="1" as="geometry">
            <mxPoint x="781" y="530" as="sourcePoint" />
            <mxPoint x="716" y="540" as="targetPoint" />
          </mxGeometry>
        </mxCell>
        <mxCell id="xLAtc9gtNEq5Ne8GK9qX-146" value="" style="endArrow=none;html=1;rounded=0;exitX=0.5;exitY=0;exitDx=0;exitDy=0;entryX=0.5;entryY=1;entryDx=0;entryDy=0;" edge="1" source="xLAtc9gtNEq5Ne8GK9qX-147" parent="1" target="xLAtc9gtNEq5Ne8GK9qX-138">
          <mxGeometry width="50" height="50" relative="1" as="geometry">
            <mxPoint x="781" y="690" as="sourcePoint" />
            <mxPoint x="761" y="615" as="targetPoint" />
          </mxGeometry>
        </mxCell>
        <mxCell id="xLAtc9gtNEq5Ne8GK9qX-147" value="password" style="ellipse;whiteSpace=wrap;html=1;" vertex="1" parent="1">
          <mxGeometry x="726" y="640" width="80" height="40" as="geometry" />
        </mxCell>
      </root>
    </mxGraphModel>
  </diagram>
</mxfile>
